<?xml version="1.0" encoding="UTF-8" standalone="no"?>
<!-- Created with Inkscape (http://www.inkscape.org/) -->

<svg
   version="1.1"
   id="svg25"
   xml:space="preserve"
   width="816"
   height="1056"
   viewBox="0 0 816 1056"
   sodipodi:docname="SpencerSmithLogo.svg"
   inkscape:version="1.1 (c4e8f9e, 2021-05-24)"
   xmlns:inkscape="http://www.inkscape.org/namespaces/inkscape"
   xmlns:sodipodi="http://sodipodi.sourceforge.net/DTD/sodipodi-0.dtd"
   xmlns="http://www.w3.org/2000/svg"
   xmlns:svg="http://www.w3.org/2000/svg"><defs
     id="defs29"><clipPath
       clipPathUnits="userSpaceOnUse"
       id="clipPath39"><path
         d="M 0,792 H 612 V 0 H 0 Z"
         id="path37" /></clipPath></defs><sodipodi:namedview
     id="namedview27"
     pagecolor="#ffffff"
     bordercolor="#666666"
     borderopacity="1.0"
     inkscape:pageshadow="2"
     inkscape:pageopacity="0.0"
     inkscape:pagecheckerboard="0"
     showgrid="false"
     inkscape:zoom="0.52556818"
     inkscape:cx="407.17838"
     inkscape:cy="528"
     inkscape:window-width="1194"
     inkscape:window-height="781"
     inkscape:window-x="0"
     inkscape:window-y="111"
     inkscape:window-maximized="0"
     inkscape:current-layer="g31" /><g
     id="g31"
     inkscape:groupmode="layer"
     inkscape:label="SpencerSmith-S-Circle"
     transform="matrix(1.3333333,0,0,-1.3333333,0,1056)"><g
       id="g33"><g
         id="g35"
         clip-path="url(#clipPath39)"><g
           id="g41"
           transform="translate(224.6341,245.9608)"><path
             d="m 0,0 c -1.573,-0.074 -3.06,-0.145 -4.184,-0.272 -0.071,-0.008 -0.137,-0.009 -0.209,-0.006 -2.274,0.107 -4.424,0.119 -6.469,0.131 -4.195,0.023 -7.816,0.043 -11.22,0.852 -5.166,1.228 -9.513,4.43 -12.242,9.02 -3.053,5.135 -3.856,11.569 -2.206,17.654 6.856,25.27 27.129,39.434 46.735,53.132 l 0.252,0.177 c 34.213,23.904 69.207,35.524 106.976,35.524 1.028,0 2.062,-0.008 3.095,-0.025 5.58,-0.096 9.174,-1.203 11.312,-3.483 2.08,-2.221 2.929,-5.749 2.676,-11.104 C 133.811,86.793 126.803,73.508 112.457,59.793 83.273,31.9 49.328,12.272 11.562,1.451 7.781,0.366 3.647,0.172 0,0 m 157.44,112.33 11.384,-1.375 c 0.808,-0.098 1.561,0.424 1.754,1.215 l 0.476,1.958 c 0.205,0.84 -0.292,1.691 -1.124,1.926 l -10.099,2.851 c -1.65,0.376 -10.639,2.412 -13.25,2.814 -4.716,0.725 -8.79,1.352 -11.87,6.027 -8.982,13.629 -21.426,24.385 -33.457,34.786 l -3.637,3.147 c -2.297,1.999 -4.612,3.98 -6.927,5.966 -15.514,13.296 -31.559,27.046 -42.497,45.262 -9.959,16.581 -7.955,31.438 5.797,42.965 31.502,26.401 68.964,39.789 111.35,39.789 3.008,0 6.081,-0.069 9.138,-0.203 10.127,-0.443 17.764,-4.063 22.088,-10.468 4.445,-6.581 4.946,-15.724 1.41,-25.747 l -0.144,-0.402 c -0.566,-1.567 -1.269,-3.515 0.407,-5.717 l 0.945,-1.24 1.296,0.869 c 7.069,4.733 10.278,11.708 9.811,21.322 -0.69,14.218 -14.789,27.174 -32.793,30.137 -4.814,0.793 -9.803,1.195 -14.827,1.195 -17.187,0 -33.543,-4.652 -47.275,-9.202 l -2.26,-0.748 C 90.761,292.054 67.622,284.399 48.936,268.12 31.797,253.19 27.271,233.048 37.402,216.811 c 6.015,-9.634 13.245,-20.677 22.967,-29.798 7.392,-6.939 15.249,-13.586 22.848,-20.015 12.904,-10.917 26.244,-22.203 37.575,-35.161 0.563,-0.645 1.17,-1.251 1.842,-1.781 1.313,-1.033 2.26,-1.877 3.091,-2.918 0.864,-1.082 0.065,-2.677 -1.318,-2.623 -3.342,0.128 -7.166,0.196 -9.979,0.196 -30.069,0 -58.226,-7.246 -83.685,-21.537 C 2.669,87.417 -23.963,70.895 -41.271,42.176 c -6.93,-11.501 -8.262,-24.461 -3.558,-34.663 3.808,-8.266 11.091,-13.682 20.508,-15.249 6.429,-1.071 12.312,-1.592 17.988,-1.592 6.982,0 13.634,0.829 19.77,2.464 36.581,9.75 70.93,29.429 105.014,60.167 12.57,11.332 24.238,24.402 24.519,43.121 0.025,1.668 -0.096,3.437 -0.213,5.146 -0.267,3.927 -0.545,7.985 1.006,10.409 1.009,1.579 1.951,1.792 2.737,1.792 1.297,0 9.853,-1.441 10.94,-1.441"
             style="fill:#231f20;fill-opacity:1;fill-rule:nonzero;stroke:none"
             id="path43" /></g><g
           id="g45"
           transform="translate(342.0669,361.1241)"><path
             d="m 0,0 c -37.549,0 -72.344,-11.558 -106.375,-35.335 l -0.25,-0.176 c -19.454,-13.592 -39.569,-27.645 -46.325,-52.547 -1.577,-5.813 -0.813,-11.953 2.095,-16.845 2.582,-4.342 6.695,-7.372 11.582,-8.535 3.292,-0.782 6.857,-0.8 10.984,-0.823 2.102,-0.012 4.232,-0.025 6.512,-0.132 1.215,0.133 2.781,0.207 4.295,0.278 h 0.006 c 3.588,0.169 7.655,0.361 11.316,1.41 37.601,10.775 71.4,30.321 100.459,58.093 14.139,13.516 21.045,26.575 21.737,41.099 0.238,5.052 -0.522,8.337 -2.395,10.337 -1.93,2.058 -5.286,3.059 -10.563,3.15 C 2.051,-0.008 1.022,0 0,0 m -121.754,-116.492 c -0.038,0 -0.077,0.001 -0.117,0.003 -2.241,0.104 -4.35,0.118 -6.389,0.13 -4.296,0.023 -7.972,0.043 -11.498,0.88 -5.444,1.294 -10.026,4.67 -12.9,9.504 -3.197,5.377 -4.042,12.108 -2.318,18.466 6.957,25.637 27.388,39.912 47.147,53.716 l 0.251,0.176 c 35.334,24.687 71.47,36.352 110.691,35.69 5.883,-0.102 9.715,-1.314 12.06,-3.814 2.286,-2.443 3.226,-6.215 2.959,-11.872 -0.718,-15.095 -7.832,-28.604 -22.383,-42.515 -29.308,-28.01 -63.401,-47.724 -101.331,-58.593 -3.896,-1.118 -8.093,-1.315 -11.795,-1.491 h -0.007 c -1.48,-0.069 -3.011,-0.141 -4.114,-0.266 -0.087,-0.009 -0.17,-0.014 -0.256,-0.014 M -3.005,8.498 c -29.889,0 -57.872,-7.2 -83.172,-21.402 -27.944,-15.684 -54.45,-32.123 -71.628,-60.626 -6.752,-11.204 -8.062,-23.795 -3.505,-33.68 3.659,-7.942 10.665,-13.146 19.728,-14.655 6.376,-1.061 12.204,-1.577 17.816,-1.577 6.892,0 13.453,0.817 19.5,2.428 36.416,9.707 70.625,29.311 104.582,59.932 12.392,11.172 23.897,24.036 24.172,42.358 0.024,1.602 -0.093,3.324 -0.205,4.987 -0.285,4.169 -0.574,8.403 1.165,11.118 1.302,2.04 2.689,2.276 3.619,2.276 0.702,0 2.842,-0.309 6.026,-0.78 1.993,-0.294 4.472,-0.661 4.914,-0.661 l 0.126,-0.007 11.384,-1.376 c 0.288,-0.037 0.542,0.148 0.609,0.421 l 0.476,1.959 c 0.072,0.293 -0.099,0.586 -0.389,0.667 l -10.1,2.852 C 42.061,2.743 31.781,5.089 28.988,5.519 24.231,6.25 19.739,6.942 16.402,12.006 7.504,25.507 -4.877,36.211 -16.849,46.562 l -3.653,3.16 c -2.015,1.753 -4.04,3.491 -6.067,5.229 l -0.857,0.735 c -15.578,13.35 -31.687,27.155 -42.713,45.518 -10.262,17.084 -8.179,32.406 6.023,44.308 33.941,28.446 74.743,41.866 121.207,39.831 10.471,-0.458 18.393,-4.237 22.911,-10.929 4.636,-6.863 5.179,-16.34 1.531,-26.683 l -0.146,-0.408 c -0.554,-1.533 -1.076,-2.979 0.254,-4.726 l 0.346,-0.455 0.476,0.319 c 6.738,4.512 9.796,11.185 9.347,20.399 -0.666,13.736 -14.386,26.269 -31.914,29.154 -4.758,0.783 -9.689,1.18 -14.657,1.18 -17.04,0 -33.293,-4.624 -46.946,-9.148 l -2.26,-0.748 c -22.285,-7.374 -45.317,-14.995 -63.841,-31.132 -16.729,-14.574 -21.177,-34.185 -11.333,-49.963 5.983,-9.581 13.171,-20.559 22.795,-29.588 7.364,-6.913 15.202,-13.544 22.782,-19.957 C -20.6,41.69 -7.231,30.379 4.148,17.364 4.733,16.696 5.29,16.157 5.85,15.717 7.136,14.706 8.182,13.794 9.112,12.629 9.772,11.802 9.886,10.703 9.41,9.76 8.936,8.822 7.982,8.248 6.934,8.304 3.797,8.423 -0.011,8.498 -3.005,8.498 m -120.761,-134.039 c -5.729,0 -11.67,0.526 -18.161,1.607 -9.769,1.626 -17.33,7.253 -21.288,15.846 -4.849,10.516 -3.498,23.841 3.613,35.641 17.442,28.942 44.199,45.546 72.399,61.373 25.617,14.379 53.945,21.67 84.198,21.67 3.018,0 6.858,-0.074 10.019,-0.196 0.326,-0.009 0.475,0.21 0.523,0.307 0.049,0.097 0.143,0.354 -0.064,0.613 -0.804,1.008 -1.749,1.827 -2.92,2.747 -0.663,0.523 -1.312,1.149 -1.984,1.915 -11.276,12.897 -24.584,24.156 -37.453,35.044 -7.635,6.46 -15.494,13.109 -22.898,20.059 -9.808,9.201 -17.086,20.314 -23.138,30.007 -10.421,16.7 -5.814,37.369 11.734,52.656 18.842,16.414 42.078,24.103 64.548,31.538 l 2.271,0.752 c 13.812,4.576 30.268,9.254 47.606,9.254 5.082,0 10.127,-0.406 14.997,-1.207 18.482,-3.043 32.957,-16.422 33.67,-31.123 0.488,-10.012 -2.874,-17.288 -10.275,-22.244 l -2.115,-1.419 -1.545,2.027 c -2.022,2.656 -1.142,5.094 -0.559,6.708 l 0.144,0.4 c 3.421,9.696 2.962,18.507 -1.293,24.805 -4.13,6.119 -11.483,9.58 -21.264,10.008 -45.93,2.021 -86.238,-11.242 -119.768,-39.343 -13.303,-11.149 -15.23,-25.541 -5.571,-41.62 10.85,-18.071 26.828,-31.764 42.28,-45.006 l 0.856,-0.734 c 2.031,-1.742 4.061,-3.483 6.077,-5.237 l 3.634,-3.145 C -3.396,37.704 9.097,26.904 18.154,13.16 20.979,8.874 24.654,8.309 29.306,7.593 32.175,7.151 42.527,4.789 42.632,4.764 l 10.15,-2.865 c 1.384,-0.389 2.199,-1.787 1.859,-3.183 l -0.477,-1.958 c -0.316,-1.305 -1.566,-2.165 -2.898,-2.009 l -11.333,1.37 c -0.637,0.02 -2.393,0.276 -5.146,0.682 -2.282,0.338 -5.119,0.758 -5.72,0.758 -0.38,0 -1.017,0 -1.852,-1.308 -1.366,-2.133 -1.1,-6.016 -0.844,-9.771 0.121,-1.782 0.24,-3.547 0.215,-5.236 -0.287,-19.125 -12.12,-32.393 -24.865,-43.884 -34.21,-30.85 -68.701,-50.608 -105.447,-60.401 -6.223,-1.659 -12.965,-2.5 -20.04,-2.5"
             style="fill:#231f20;fill-opacity:1;fill-rule:nonzero;stroke:none"
             id="path47" /></g><g
           id="g49"
           transform="translate(305.9995,595.8435)"><path
             d="m 0,0 c -110.195,0 -199.845,-89.649 -199.845,-199.843 0,-110.195 89.65,-199.844 199.845,-199.844 110.195,0 199.846,89.649 199.846,199.844 C 199.846,-89.649 110.195,0 0,0 m 0,-410.687 c -116.26,0 -210.845,94.584 -210.845,210.844 C -210.845,-83.584 -116.26,11 0,11 116.261,11 210.846,-83.584 210.846,-199.843 210.846,-316.103 116.261,-410.687 0,-410.687"
             style="fill:#231f20;fill-opacity:1;fill-rule:nonzero;stroke:none"
             id="path51" /></g></g></g></g></svg>
