<?xml version="1.0" encoding="UTF-8" standalone="no"?>
<!-- Created with Inkscape (http://www.inkscape.org/) -->

<svg
   version="1.1"
   id="svg2"
   xml:space="preserve"
   width="480"
   height="277.23468"
   viewBox="0 0 480 277.23468"
   sodipodi:docname="ssslogofull.svg"
   inkscape:version="1.1 (c4e8f9e, 2021-05-24)"
   xmlns:inkscape="http://www.inkscape.org/namespaces/inkscape"
   xmlns:sodipodi="http://sodipodi.sourceforge.net/DTD/sodipodi-0.dtd"
   xmlns="http://www.w3.org/2000/svg"
   xmlns:svg="http://www.w3.org/2000/svg"><defs
     id="defs6"><clipPath
       clipPathUnits="userSpaceOnUse"
       id="clipPath16"><path
         d="M 0,207.926 H 360 V 0 H 0 Z"
         id="path14" /></clipPath></defs><sodipodi:namedview
     id="namedview4"
     pagecolor="#ffffff"
     bordercolor="#666666"
     borderopacity="1.0"
     inkscape:pageshadow="2"
     inkscape:pageopacity="0.0"
     inkscape:pagecheckerboard="0"
     showgrid="false"
     inkscape:zoom="2.1642314"
     inkscape:cx="239.808"
     inkscape:cy="138.84837"
     inkscape:window-width="1194"
     inkscape:window-height="781"
     inkscape:window-x="0"
     inkscape:window-y="111"
     inkscape:window-maximized="0"
     inkscape:current-layer="g8" /><g
     id="g8"
     inkscape:groupmode="layer"
     inkscape:label="SSS Logos"
     transform="matrix(1.3333333,0,0,-1.3333333,0,277.23467)"><g
       id="g10"><g
         id="g12"
         clip-path="url(#clipPath16)"><g
           id="g18"
           transform="translate(160.7847,53.7643)"><path
             d="m 0,0 c 0,-1.071 -0.208,-1.792 -0.625,-2.165 -0.417,-0.371 -1.167,-0.557 -2.253,-0.557 h -7.118 c -1.175,0 -1.949,0.208 -2.32,0.625 -0.372,0.416 -0.559,1.219 -0.559,2.409 l 2.366,0.491 v -1.361 h 8.144 V 2.075 H -9.55 c -1.086,0 -1.833,0.186 -2.242,0.558 -0.41,0.371 -0.614,1.093 -0.614,2.164 v 1.272 c 0,1.071 0.204,1.792 0.614,2.164 0.409,0.372 1.156,0.558 2.242,0.558 h 6.538 c 1.1,0 1.852,-0.189 2.253,-0.569 0.402,-0.379 0.603,-1.112 0.603,-2.198 L -2.521,5.467 v 1.316 h -7.542 V 4.306 h 7.185 c 1.086,0 1.836,-0.186 2.253,-0.557 C -0.208,3.376 0,2.655 0,1.584 Z"
             style="fill:#000000;fill-opacity:1;fill-rule:nonzero;stroke:none"
             id="path20" /></g><g
           id="g22"
           transform="translate(181.6475,53.7643)"><path
             d="m 0,0 c 0,-1.071 -0.205,-1.792 -0.614,-2.165 -0.409,-0.371 -1.157,-0.557 -2.242,-0.557 h -6.873 c -1.086,0 -1.834,0.186 -2.242,0.557 -0.409,0.373 -0.614,1.094 -0.614,2.165 v 6.069 c 0,1.071 0.205,1.792 0.614,2.164 0.408,0.372 1.156,0.558 2.242,0.558 h 6.873 c 1.368,0 2.216,-0.32 2.544,-0.959 C -0.104,7.46 0,6.508 0,4.976 L -2.678,4.552 v 2.186 h -7.229 v -7.296 h 7.229 V 1.919 L 0,1.361 Z"
             style="fill:#000000;fill-opacity:1;fill-rule:nonzero;stroke:none"
             id="path24" /></g><path
           d="m 201.416,60.503 h -8.836 v -7.296 h 8.836 z m 2.678,-6.739 c 0,-1.071 -0.204,-1.792 -0.614,-2.164 -0.409,-0.372 -1.157,-0.558 -2.242,-0.558 h -8.479 c -1.086,0 -1.833,0.186 -2.242,0.558 -0.41,0.372 -0.614,1.093 -0.614,2.164 v 6.069 c 0,1.071 0.204,1.793 0.614,2.165 0.409,0.371 1.156,0.557 2.242,0.557 h 8.479 c 1.085,0 1.833,-0.186 2.242,-0.557 0.41,-0.372 0.614,-1.094 0.614,-2.165 z"
           style="fill:#000000;fill-opacity:1;fill-rule:nonzero;stroke:none"
           id="path26" /><g
           id="g28"
           transform="translate(223.3711,60.5025)"><path
             d="M 0,0 H -5.31 V -9.46 H -7.987 V 0 h -5.288 V 2.053 H 0 Z"
             style="fill:#000000;fill-opacity:1;fill-rule:nonzero;stroke:none"
             id="path30" /></g><g
           id="g32"
           transform="translate(241.5791,60.5025)"><path
             d="M 0,0 H -5.31 V -9.46 H -7.987 V 0 h -5.288 V 2.053 H 0 Z"
             style="fill:#000000;fill-opacity:1;fill-rule:nonzero;stroke:none"
             id="path34" /></g><g
           id="g36"
           transform="translate(264.1592,53.7643)"><path
             d="m 0,0 c 0,-1.071 -0.208,-1.792 -0.625,-2.165 -0.416,-0.371 -1.168,-0.557 -2.253,-0.557 h -7.118 c -1.175,0 -1.949,0.208 -2.32,0.625 -0.372,0.416 -0.558,1.219 -0.558,2.409 l 2.364,0.491 v -1.361 h 8.145 V 2.075 H -9.55 c -1.086,0 -1.834,0.186 -2.242,0.558 -0.409,0.371 -0.614,1.093 -0.614,2.164 v 1.272 c 0,1.071 0.205,1.792 0.614,2.164 0.408,0.372 1.156,0.558 2.242,0.558 h 6.537 c 1.102,0 1.853,-0.189 2.254,-0.569 0.402,-0.379 0.603,-1.112 0.603,-2.198 L -2.521,5.467 v 1.316 h -7.542 V 4.306 h 7.185 c 1.085,0 1.837,-0.186 2.253,-0.557 C -0.208,3.376 0,2.655 0,1.584 Z"
             style="fill:#000000;fill-opacity:1;fill-rule:nonzero;stroke:none"
             id="path38" /></g><g
           id="g40"
           transform="translate(287.6992,51.0421)"><path
             d="m 0,0 h -2.477 v 7.163 c 0,0.252 0.03,0.647 0.089,1.182 C -2.521,8.062 -2.744,7.661 -3.057,7.14 L -7.386,1.383 h -0.535 l -4.329,5.78 c -0.313,0.416 -0.543,0.81 -0.691,1.182 0.045,-0.461 0.066,-0.841 0.066,-1.138 V 0 h -2.164 v 11.513 h 2.164 l 5.423,-6.961 5.309,6.961 H 0 Z"
             style="fill:#000000;fill-opacity:1;fill-rule:nonzero;stroke:none"
             id="path42" /></g><path
           d="m 298.989,51.042 h -2.678 v 11.513 h 2.678 z"
           style="fill:#000000;fill-opacity:1;fill-rule:nonzero;stroke:none"
           id="path44" /><g
           id="g46"
           transform="translate(318.5127,60.5025)"><path
             d="M 0,0 H -5.31 V -9.46 H -7.987 V 0 h -5.288 V 2.053 H 0 Z"
             style="fill:#000000;fill-opacity:1;fill-rule:nonzero;stroke:none"
             id="path48" /></g><g
           id="g50"
           transform="translate(338.5059,51.0421)"><path
             d="m 0,0 h -2.7 v 4.954 h -8.367 V 0 h -2.678 v 11.513 h 2.678 V 7.051 H -2.7 v 4.462 H 0 Z"
             style="fill:#000000;fill-opacity:1;fill-rule:nonzero;stroke:none"
             id="path52" /></g><g
           id="g54"
           transform="translate(137.332,66.3746)"><path
             d="M 0,0 C -0.816,-4.178 -2.088,-7.837 -3.42,-11.345 -2.771,-7.462 -1.651,-3.752 0,0 m 198.736,9.938 c -0.382,0.072 -0.772,0.109 -1.158,0.109 -1.641,0 -3.011,-0.63 -4.336,-1.241 -0.978,-0.451 -1.903,-0.876 -2.843,-0.992 -0.665,-0.081 -1.34,-0.182 -2.022,-0.284 -1.583,-0.237 -3.219,-0.48 -4.754,-0.48 -2.856,0 -4.805,0.849 -6.316,2.757 -2.414,3.046 -4.657,7.874 -1.628,13.581 1.417,2.669 2.749,5.64 4.073,9.086 l 0.19,0.478 c 0.566,1.386 1.51,3.707 -0.617,5.193 -0.603,0.421 -1.207,0.634 -1.798,0.634 -1.606,0 -2.537,-1.489 -3.216,-2.575 l -0.144,-0.228 c -3.037,-4.793 -7.271,-8.665 -11.365,-12.407 -1.073,-0.98 -2.142,-1.958 -3.193,-2.952 -4.267,-4.039 -8.186,-6.234 -12.27,-6.859 -0.304,1.122 0.193,1.924 0.8,2.901 0.269,0.437 0.549,0.889 0.756,1.382 0.107,0.258 0.229,0.519 0.35,0.779 0.697,1.492 1.751,3.748 -0.775,5.31 -0.538,0.333 -1.116,0.501 -1.72,0.501 -1.335,0 -2.724,-0.855 -3.81,-2.347 -1.546,-2.129 -3.761,-3.332 -6.106,-4.607 -1.376,-0.749 -2.799,-1.523 -4.09,-2.504 -0.182,-0.139 -0.373,-0.3 -0.573,-0.467 -0.61,-0.514 -1.302,-1.098 -1.929,-1.098 -0.345,0 -0.701,0.176 -1.092,0.539 -0.753,0.701 -0.61,0.967 0.114,1.982 0.293,0.411 0.596,0.837 0.785,1.338 0.096,0.252 0.277,0.547 0.471,0.859 0.579,0.941 1.548,2.514 -0.013,3.937 -0.646,0.589 -1.403,0.887 -2.251,0.887 -1.135,0 -2.204,-0.52 -3.24,-1.023 l -0.823,-0.4 c -3.927,-1.911 -7.989,-3.887 -12.096,-5.489 -1.005,-0.391 -1.949,-0.598 -2.73,-0.598 -0.972,0 -1.696,0.304 -2.211,0.931 -0.407,0.494 -0.159,1.079 0.504,2.297 0.242,0.444 0.492,0.904 0.669,1.38 0.137,0.369 0.381,0.779 0.639,1.213 0.745,1.257 1.874,3.156 0.113,4.925 -0.738,0.742 -1.543,1.117 -2.393,1.117 -1.225,0 -2.255,-0.775 -3.163,-1.461 -0.389,-0.294 -0.756,-0.571 -1.103,-0.763 -2.432,-1.352 -4.672,-3.038 -6.839,-4.67 -3.517,-2.648 -6.84,-5.15 -10.989,-6.428 -0.206,-0.063 -0.407,-0.132 -0.604,-0.201 -0.476,-0.164 -0.928,-0.317 -1.281,-0.317 -0.252,0 -0.539,0.064 -0.934,0.536 -0.481,0.575 -0.384,0.765 0.15,1.566 0.231,0.345 0.491,0.737 0.659,1.203 0.297,0.821 0.959,1.582 1.658,2.388 1.564,1.797 3.508,4.034 1.777,7.843 l -0.645,0.363 -0.768,-0.028 c -1.364,-1.102 -2.682,-2.198 -3.981,-3.275 -2.829,-2.35 -5.502,-4.57 -8.336,-6.595 L 70.902,16.669 C 64.831,12.308 58.555,7.797 50.841,6.958 50.104,6.877 49.322,6.799 48.541,6.799 c -2.262,0 -3.587,0.683 -4.298,2.214 -0.826,1.775 0.116,2.721 1.852,4.241 0.44,0.386 0.878,0.77 1.254,1.169 1.244,1.312 2.564,2.607 3.84,3.86 1.089,1.066 2.176,2.133 3.236,3.227 l 0.349,0.354 c 1.031,1.043 2.313,2.339 2.242,3.895 -0.039,0.866 -0.489,1.666 -1.335,2.378 -0.753,0.634 -1.672,0.968 -2.659,0.968 -1.516,0 -3.099,-0.785 -4.338,-2.155 -0.666,-0.735 -1.384,-1.439 -2.102,-2.142 -1.515,-1.486 -3.081,-3.021 -4.178,-4.867 -3.112,-5.233 -8.19,-6.464 -13.566,-7.77 -0.665,-0.161 -1.331,-0.322 -1.993,-0.491 -0.189,-0.05 -0.378,-0.075 -0.558,-0.075 -1.091,0 -1.737,0.86 -2.025,1.372 -0.412,0.729 -0.187,1.106 0.859,2.116 0.137,0.132 0.273,0.263 0.401,0.395 2.747,2.813 4.152,6.312 5.509,9.695 0.227,0.564 0.454,1.128 0.686,1.689 1.493,3.602 0.887,6.481 -1.965,9.335 -1.828,1.828 -3.783,2.716 -5.973,2.716 -1.252,0 -2.581,-0.288 -4.065,-0.883 C 14.653,36.014 11.031,33.304 8.643,29.756 -1.885,14.126 -8.481,-4.6 -12.115,-29.175 c -0.076,-0.518 -0.202,-1.107 -0.336,-1.734 -0.503,-2.367 -1.129,-5.313 0.163,-7.293 0.609,-0.932 1.567,-1.541 2.85,-1.807 0.431,-0.089 0.843,-0.135 1.224,-0.135 3.792,0 4.08,4.058 4.272,6.741 0.057,0.813 0.111,1.58 0.236,2.12 1.191,5.151 2.831,10.288 4.418,15.258 3.123,9.78 6.351,19.892 6.432,30.827 0.057,7.796 5.505,14.775 14.219,18.215 1.098,0.434 2.048,0.654 2.82,0.654 0.774,0 1.324,-0.216 1.682,-0.659 0.593,-0.731 0.709,-2.115 0.326,-3.898 -1.018,-4.776 -3.273,-9.127 -6.517,-12.582 -2.128,-2.265 -2.939,-4.256 -2.416,-5.92 0.534,-1.691 2.301,-2.827 5.402,-3.474 1.478,-0.309 2.767,-0.459 3.939,-0.459 1.083,0 2.064,0.134 2.915,0.397 2.06,0.638 4.191,1.298 5.999,1.298 1.774,0 4.004,-0.549 5.507,-4.822 0.729,-2.073 2.836,-2.192 4.532,-2.288 0.44,-0.024 0.879,-0.048 1.287,-0.106 0.923,-0.135 1.851,-0.202 2.761,-0.202 6.347,0 11.403,3.237 16.29,6.367 1.356,0.869 2.76,1.767 4.16,2.573 0.553,0.319 1.063,0.759 1.557,1.185 0.749,0.643 1.525,1.311 2.217,1.311 0.448,0 0.933,-0.276 1.477,-0.841 2.159,-2.242 4.497,-3.331 7.149,-3.331 2.951,0 5.879,1.392 8.625,2.82 2.431,1.263 4.784,2.77 7.06,4.227 1.19,-0.375 1.741,-0.549 2.931,-0.924 1.241,-2.875 3.021,-4.635 6.184,-4.635 1.331,0 2.92,0.296 4.996,0.935 2.451,0.751 4.891,1.532 7.327,2.324 0.359,0.116 0.721,0.309 1.073,0.495 0.259,0.139 0.669,0.356 0.909,0.422 1.679,-4.091 3.922,-6.081 6.849,-6.081 2.126,0.001 4.287,1.05 6.377,2.063 1.24,0.601 2.412,1.171 3.555,1.525 0.475,0.147 0.875,0.396 1.227,0.614 0.309,0.194 0.63,0.392 0.818,0.392 0.076,0 0.372,-0.063 0.911,-0.867 1.637,-2.451 3.726,-3.692 6.207,-3.692 2.588,0 5.126,1.314 7.481,2.733 3.347,2.014 6.317,4.434 9.755,7.236 1.084,0.883 2.202,1.794 3.378,2.729 -0.018,-7.471 1.677,-15.786 11.627,-19.016 1.713,-0.556 3.461,-0.838 5.197,-0.838 5.134,0 10.07,2.517 13.693,6.943 0.457,0.558 1.288,1.169 1.005,1.699 l -0.371,0.405 z"
             style="fill:#000000;fill-opacity:1;fill-rule:nonzero;stroke:none"
             id="path56" /></g><g
           id="g58"
           transform="translate(41.9463,20.5563)"><path
             d="m 0,0 c -0.871,-0.041 -1.695,-0.081 -2.317,-0.15 -0.039,-0.005 -0.076,-0.006 -0.116,-0.004 -1.259,0.058 -2.45,0.065 -3.583,0.072 -2.323,0.013 -4.328,0.024 -6.213,0.472 -2.861,0.68 -5.269,2.454 -6.78,4.995 -1.691,2.844 -2.136,6.407 -1.222,9.778 3.797,13.994 15.024,21.838 25.882,29.424 l 0.141,0.098 c 18.947,13.238 38.326,19.673 59.243,19.673 0.569,0 1.142,-0.004 1.715,-0.013 3.089,-0.053 5.08,-0.667 6.264,-1.929 1.152,-1.23 1.622,-3.184 1.482,-6.15 C 74.105,48.066 70.225,40.708 62.279,33.113 46.117,17.666 27.318,6.796 6.403,0.803 4.309,0.202 2.02,0.095 0,0 m 87.191,62.208 6.305,-0.761 c 0.447,-0.054 0.864,0.235 0.971,0.673 l 0.264,1.085 c 0.113,0.464 -0.162,0.936 -0.623,1.066 l -5.593,1.579 c -0.913,0.209 -5.892,1.336 -7.338,1.558 -2.611,0.402 -4.867,0.749 -6.573,3.338 -4.975,7.548 -11.866,13.504 -18.529,19.265 l -2.014,1.742 c -1.272,1.108 -2.554,2.205 -3.836,3.305 -8.592,7.363 -17.478,14.978 -23.536,25.066 -5.515,9.183 -4.405,17.411 3.211,23.794 17.446,14.622 38.193,22.036 61.666,22.036 1.666,0 3.368,-0.038 5.061,-0.112 5.608,-0.246 9.838,-2.251 12.232,-5.798 2.462,-3.645 2.739,-8.708 0.781,-14.259 l -0.079,-0.223 c -0.314,-0.867 -0.703,-1.946 0.225,-3.165 l 0.524,-0.688 0.717,0.482 c 3.915,2.621 5.692,6.484 5.433,11.808 -0.382,7.874 -8.19,15.05 -18.16,16.69 -2.667,0.439 -5.429,0.662 -8.212,0.662 -9.518,0 -18.576,-2.576 -26.181,-5.096 l -1.251,-0.414 c -12.392,-4.1 -25.207,-8.34 -35.555,-17.355 -9.492,-8.268 -11.998,-19.423 -6.388,-28.415 3.331,-5.335 7.335,-11.451 12.72,-16.502 4.093,-3.843 8.444,-7.525 12.653,-11.085 7.146,-6.046 14.534,-12.296 20.809,-19.472 0.312,-0.357 0.648,-0.693 1.021,-0.987 0.727,-0.572 1.251,-1.039 1.711,-1.616 0.478,-0.599 0.036,-1.482 -0.73,-1.452 -1.851,0.071 -3.968,0.108 -5.526,0.108 -16.652,0 -32.246,-4.012 -46.346,-11.927 C 1.478,48.412 -13.271,39.262 -22.856,23.357 -26.694,16.987 -27.432,9.811 -24.827,4.16 c 2.109,-4.578 6.143,-7.577 11.357,-8.444 3.561,-0.594 6.819,-0.882 9.963,-0.882 3.866,0 7.55,0.459 10.948,1.364 20.259,5.4 39.282,16.298 58.158,33.321 6.962,6.276 13.423,13.514 13.578,23.881 0.014,0.924 -0.053,1.903 -0.117,2.85 -0.148,2.174 -0.302,4.422 0.557,5.764 0.558,0.875 1.08,0.992 1.516,0.992 0.718,0 5.456,-0.798 6.058,-0.798"
             style="fill:#000000;fill-opacity:1;fill-rule:nonzero;stroke:none"
             id="path60" /></g></g></g></g></svg>
